<?xml version="1.0" encoding="UTF-8"?>
<svg id="Layer_2" data-name="Layer 2" xmlns="http://www.w3.org/2000/svg" viewBox="0 0 530.56 426.61">
  <defs>
    <style>
      .cls-1 {
        fill: #45b649;
      }

      .cls-2 {
        fill: #cfe7c9;
      }

      .cls-3 {
        fill: #13733b;
      }

      .cls-4 {
        fill: #172919;
      }

      .cls-5 {
        fill: #c5e0be;
      }

      .cls-6 {
        fill: #6cbe45;
      }

      .cls-7 {
        fill: #6ebe45;
      }

      .cls-8 {
        fill: #a1d078;
      }

      .cls-9 {
        fill: #fff;
      }

      .cls-10 {
        fill: #089447;
      }

      .cls-11 {
        fill: #142916;
      }

      .cls-12 {
        fill: #edf6e6;
      }

      .cls-13 {
        fill: #0e733a;
      }

      .cls-14 {
        fill: none;
        stroke: #0e733a;
        stroke-linecap: round;
        stroke-miterlimit: 10;
        stroke-width: 7.4px;
      }
    </style>
  </defs>
  <g id="Full_colour_Texture" data-name="Full colour + Texture">
    <g id="rindfill">
      <path id="rindfill-2" data-name="rindfill" class="cls-1" d="M523.31,110.93c-1.02-1.58-2.53-2.97-4.42-3.4-1.85-.42-346.42,136.74-347.19,138.65-14.69,3.63-53.7,9.99-56.89,10.33-10.64,1.24-21.31,1.74-32.02,1.6-3.35-.35-6.75-.46-10.31-.04-1.74.2-64.84.35-64.31,1.57-1.25,1.54,17.19,50.64,28.12,72.01,4.62,9.04,24.74,36.35,27.1,37.52,54.77,27.04,116.62,13.64,171.53-5.06,29.15-9.93,55.11-23.09,82.98-36.26,12.35-5.84,69.73-45.06,76.59-50.65,15.91-12.95,31.69-26.11,46.57-40.25,29.19-27.74,70.44-100.08,71.04-100.96,1.73-2.53,12.21-23.46,11.2-25.04Z"/>
      <g id="rindhl">
        <path class="cls-8" d="M405.8,169.81c-19.68,7.86-101.78,45.57-125.07,47.94-9.38.95-9.46,13.87.02,12.91,23.13-2.35,104.21-40.12,124.97-49.8,38.36-17.87,89.4-47.64,117.04-73.33,6.89-6.41-77.22,46.41-116.96,62.28Z"/>
        <path class="cls-8" d="M384.86,225.93c.5-2.3-2.24,2.68,1.03,7.05,2.15,2.87,6.72,4.21,7.96,4.29,2.07.14,7.4,0,10.32-3.09.31-.98,1.7-4.58,1.48-5.57-11.15,10.84-21.62,1.23-20.78-2.69Z"/>
        <path class="cls-8" d="M427.25,201.17c.35-1.82-2.06,2.2.23,5.65,1.51,2.27,5.21,3.24,6.08,3.31,1.45.11,5.19,0,7.24-2.44.22-.78,1.19-3.62,1.04-4.39-7.82,8.56-15.17.97-14.58-2.12Z"/>
      </g>
    </g>
    <g id="texturebumps">
      <path id="bump2" class="cls-3" d="M399.3,236.01c-5.68,2.32-12.17-.41-14.49-6.09-.39-.95-.44-1.93-.55-2.9-.63,2.28-.71,4.73.25,7.09,2.32,5.68,8.81,8.41,14.49,6.09,4.73-1.93,7.22-6.75,6.64-11.59-.88,3.21-3.02,6.04-6.34,7.4Z"/>
      <path id="bump1" class="cls-3" d="M438.02,208.3c-3.83,2.16-8.68.81-10.84-3.02-.36-.64-.49-1.33-.65-2.01-.24,1.68-.08,3.43.82,5.01,2.16,3.83,7.01,5.18,10.84,3.02,3.19-1.8,4.52-5.44,3.67-8.83-.34,2.36-1.6,4.56-3.84,5.82Z"/>
    </g>
    <g id="pulpfill">
      <path id="pulpfill-2" data-name="pulpfill" class="cls-5" d="M494.89,114.63c-123.25,48.11-251.18,72.19-245.44,71.8,3.85-.27-42.27,11.68-49.32,9.88-5.27,1.45-30.86,4.58-31.76,4.67-.86.09-22.93.37-24.67,1.41-16.43-1.34-26.42-5.33-28.5-6.66-8.86-5.65-12.83-13.93-12.69-23.38.07-.22.24-.37.28-.61.26-1.63.65-3.24,1.1-4.83.77-2.05,1.53-4.09,2.3-6.14.15-.39.09-.8.14-1.21.89-1.3,1.83-2.58,2.59-3.97,1.25-2.27,2.14-4.73,3.11-7.13.07-.18.06-.15.09-.25,0,0,0,0,0-.01.07-.14.14-.29.2-.43,4.86-6.37,10.61-12.39,14.96-17.74,2.59-3.18,4.66-5.96,6.74-8.58.5.47,1.15.69,1.74,1.01.56-.87,1.23-1.66,2.07-2.27l-.37.28c1.39-1.14,2.41-2.64,3.53-4.02,1.63-2,3.81-3.54,5.84-5.1-.5.39-1,.77-1.5,1.16,1.49-1.17,2.88-2.45,4.32-3.69-.25-.63-.48-1.28-.94-1.79-.08-.13-.24-.18-.33-.3-.96.32-1.92.65-2.87,1-2.01.97-3.8,2.23-5.75,3.31-2.37,1.31-4.95,2.1-7.57,2.71-.05.15-.18.25-.22.41-.03.1.01.19-.01.29-13.57,6.26-31.22,15.97-31.76,16.23-3.84-.43-48.63,27.98-56.91,39.06-2.88,3.86-35.13,34.58-30.9,35.95-19.62,33.29,4.27,45.9,9.69,46.8,6.48,1.07,37.36,9.16,47.03,7.04,2.92-.64,51.87-3.93,54.81-4.19.73.24,93.34-19.36,94.25-19.36,3.87,0,171.81-59.77,181.61-66.24,1.38-.91,103.95-54.55,95.12-55.12Z"/>
    </g>
    <g id="pulphighlight">
      <path id="h1" class="cls-12" d="M488.51,117.07c-63.73,24.58-185.19,55.88-251.35,72.45-32.65,8.18-56.06,8.41-89.6,12.02-28.75,3.09-40.27-15.37-40.63-15.53-5.57-9.88-2.1-21.22,2.43-30.83,3.57-7.58,9.33-14.02,14.83-20.47.4-.53.69-1.14,1.14-1.62.15-.16.36-.23.51-.38,1.11-1.32,2.24-2.63,3.28-3.97,6.32-8.11,13.15-15.93,22.04-21.24-1.58-1.66-3.97-2.3-6.86-.6-9.23,5.42.85-.4-14.54,10.55-15.6,11.11-29.36,39.45-31.58,51.1-1.48,7.78.48,20.17,11.13,27.86l-.78-.3-12.91-8.85c4.31,6.82,10.64,10.53,16.39,12.66l-8.27,1.18,22.23,2.53-1.85-.99c.84.06,1.43.08,1.43.08l-1.04-.4c1.56.27,2.94.67,4.68.8,3.36.25,6.36.48,9.13.67l11.74,4.22h11.8l-4.98-1.18h-.01c9.57-.5,27.57-2.65,27.57-2.65-2.18.32-12.41.18-20.76,0,8.95-.51,20.08-1.75,38.39-4.07,66.69-8.44,210.14-46.28,276.06-66.37,9.01-2.75,19.29-20.11,10.38-16.67Z"/>
      <path id="hl3" class="cls-12" d="M135.05,199.94s-1.59.62-2.53,1.13c-.41.22-14.29,15.97-17.54,18.55-3.67,2.92-7.47,5.65-11.41,8.18-3.6,2.32-7.11,4.82-10.84,6.91-1.19.67-45.5,16.43-64.59,15.42-9.51-.51-2.62,7.67,6.86,8.18,21.89,1.16,32-1.83,55.83-14.41,7.95-4.2,18.85-14.24,27.67-23.58,1.69-1.79,3.26-3.52,4.76-5.21l-2.77,12.99,10.59-17.97,3.73,5.79.2-12.46v-.05s.06-3.47.06-3.47Z"/>
      <path id="hl2" class="cls-12" d="M128.56,203.08c1.44-.45,2.65-.92,3.51-1.41,0,0-9.78,1.21-13.66,1.96-7.41,1.43-33.69-.25-39.77-1.96-7.54-2.12-24.07-11.98-24.94-16.09-.56-2.64-15.8-21.09-17.81-11.78-2.21,10.23,15.35,28.69,36.53,33.36,5.88,1.3,22.02.9,36.26-.61l-10.27,4.23c5.52.41,16.08-2.38,23.69-4.68l-3.07,5.49,11.95-8.35h0s0,0,0,0l.83-.58-3.25.43Z"/>
      <path id="hl4" class="cls-12" d="M332.36,195.85c-32.15,12.98-123.04,16.23-157.36,16.39-30.57.14-50.55-16.13-42.93-10.56.92.67,2.02,1.14,2.98,1.77l-.06-.02-.04,2.66,12.25,6.32-2.21-3.47c27.3,12.21,64.65,11.36,92.17,11.39,36.6.03,42.11-4.37,75-12.49,9.13-2.25,29.04-15.55,20.2-11.98Z"/>
    </g>
    <g id="typography">
      <g id="shadow">
        <path class="cls-10" d="M147.51,328.58l13.89-.83-10.53-47.72-11.21,1.42-5.37-25.61,3.57-.5c8.91-1.24,14.59-2.36,22-3.82,9.19-1.81,17.86-3.53,24.33-4.98l4.7-1.05,7.33,25.71-14.65,2.27,14.45,48.8,15.84-2.75,8.97,24.71-5.63,2.33c-9.23,2.17-17.55,3.15-24.89,4.01l-5.57.67c-9.28,1.01-15.78,1.64-28.11,1.99l-6.82-.83-2.29-23.82Z"/>
        <path class="cls-10" d="M184.19,246.54l37.6-9.21s9.68,12.75,18.89,27.74l-3-32.25,32.86-9.03,31.19,98.47-28.49,8.95-2.04-6.14-19.85,4.73,3.59,7.96-39.74,8.79-31-100.02Z"/>
        <path class="cls-10" d="M270.53,223.79l34.3-11.76,75.51,74.38-35.81,18-10.23-16.03-5.3,1.98,9.73,16.29-37.01,15.61-31.19-98.47ZM320.56,271.11l2.93-.95c-2.74-3.32-3.44-3.89-7.95-9.43l5.02,10.38Z"/>
        <path class="cls-10" d="M426.43,248.75c-56.55,36.38-127.59,84.91-250.97,101.79-16.79,2.3-50-3.22-61.84-7.15l31.3-64.43-10.63-23.13s-68.84,3.05-71.2,2.89c-.45-.03-.98-.13-1.45-.17-1.73,2.5-5.02,3.52-8.05,3-7.41-1.27-14.92-2.02-22.21-3.89-4.98-1.28-9.61-3.37-13.99-5.93l10.72,40.66s20.46,2.06,37.23.85c0,0,24.61-1.76,35.14-4.05l-42.6,58.63,14.32,13.65c.46.43,11.45,10.73,37.13,13.96,0,0,5.9.74,6.86.81v-.14c6.7.6,13.67.9,20.76.9,88.68,0,182.52-45.35,237.55-84.18l55.13-43.19c-.04-.21-3.19-.67-3.2-.89Z"/>
      </g>
      <g id="whiteoutline">
        <path class="cls-9" d="M140.15,331.81l13.89-.83-10.53-47.72-11.21,1.42-5.37-25.61,3.57-.5c8.91-1.24,14.59-2.36,22-3.82,9.19-1.81,17.86-3.53,24.33-4.98l4.7-1.05,7.33,25.71-14.65,2.27,14.45,48.8,15.84-2.75,8.97,24.71-5.63,2.33c-9.23,2.17-17.55,3.15-24.89,4.01l-5.57.67c-9.28,1.01-15.78,1.64-28.11,1.99l-6.82-.83-2.29-23.82Z"/>
        <path class="cls-9" d="M176.82,249.76l37.6-9.21s9.68,12.75,18.89,27.74l-3-32.25,32.86-9.03,31.19,98.47-28.49,8.95-2.04-6.14-19.85,4.73,3.59,7.96-39.74,8.79-31-100.02Z"/>
        <path class="cls-9" d="M263.17,227.02l34.3-11.76,75.51,74.38-35.81,18-10.23-16.03-5.3,1.98,9.73,16.29-37.01,15.61-31.19-98.47ZM313.2,274.33l2.93-.95c-2.74-3.32-3.44-3.89-7.95-9.43l5.02,10.38Z"/>
        <path class="cls-9" d="M129.59,380.23c-7.09,0-14.06-.3-20.75-.9v.14c-.96-.07-6.86-.81-6.86-.81-25.68-3.24-38.12-9.07-38.57-9.5l-15.38-20.49,45.1-56.25c-10.54,2.29-35.14,4.05-35.14,4.05-16.78,1.21-37.23-.85-37.23-.85l-11.88-45.06s29.16,10.23,46.86,11.38c2.35.16,71.19-2.89,71.19-2.89l10.63,23.13-31.3,64.43c11.85,3.93,45.06,9.44,61.84,7.15,133.26-18.23,216.58-73.53,270.66-111.34l-71.62,53.62c-55.02,38.83-148.87,84.18-237.55,84.18,0,0,0,0,0,0Z"/>
      </g>
      <g id="blacktext">
        <path class="cls-4" d="M148.72,275.13l14.25,61.15-16.08,1.6c.76,5.21,1.53,10.42,2.29,15.62,11.81-.33,18.16-.92,27.82-1.97,8.67-1.11,18.71-1.93,30.16-4.63-2.47-6.78-3.33-10.42-6.08-17.58l-18.35,3.37-17.31-61.2,16.66-2.77c-1.53-6.02-4.6-16.06-4.6-16.06-6.59,1.49-15.47,3.23-23.34,4.78-8,1.58-13.84,2.75-23.24,4.06l5.47,15.84,12.36-2.2Z"/>
        <path class="cls-4" d="M239.63,339.8l-23.84-56.33c4.66,9.67,24.68,44.69,24.68,44.69l21.95-5.15-8.39-52.59c4.06,20.9,17.03,59.87,17.03,59.87l19.59-6.67-29.44-92.96-23.36,6.73,2.33,53.8c-6.51-13.22-29.97-46.43-29.97-46.43l-26.57,6.29,30.75,94.59,25.22-5.84Z"/>
        <path class="cls-4" d="M322.43,308.62l-6.66-16.81,14.26-5.86,10.8,14.43,22.13-10.62-68.49-69.45-25.89,8.57,31.28,89.04,22.58-9.31ZM321.64,275.68l-10.33,4.03-20.65-42.56c2.71,4.28,30.99,38.53,30.99,38.53Z"/>
        <path class="cls-11" d="M366.47,293.36c-34.3,22.02-197.48,84.53-272.56,56.23l35.7-70.03c-.61-3.1-5.29-14.41-5.9-17.51-12.19,1.42-50.48,5.43-69.11,4.2-17.99-1.18-27.94-2.44-38.5-6.57,4.26,18.11,7.61,24.21,10.5,28.51,11.21.9,23.4,1.42,36.44,1.33,14.42-.1,27.79-.95,39.99-2.21l-47.46,62.46,10.48,12.51s10.45,10.01,35.84,13.22l.28.1c.65.08,1.33.09,1.98.16,1.37.15,2.59.37,4.05.47l-.57-.19c84.92,7.89,190.51-34.46,258.85-82.7Z"/>
      </g>
    </g>
    <g id="toplines">
      <g id="limeoutline">
        <path class="cls-6" d="M527.71,102.96c-19.78,11.49-41.69,19.08-63.2,26.56-64.78,21.91-130.83,39.78-197.47,55.01-33.36,7.4-66.86,14.78-100.97,17.86-3.04.28-7.69.49-10.74.59-13.7,0-27.78-.16-40.6-5.88-9-4.04-14.55-12.47-13.44-22.52,2.64-23.15,27.57-47.54,43.94-62.96,3-2.82,6.56-5.73,9.69-8.44,1.08-.95,2.23-1.97,3.41-2.86,1.07-.71,2.14.84,1.12,1.58-4.96,2.72-8.91,7.15-13.04,10.98-12.04,11.86-23.31,24.79-32.08,39.26-8,13.35-15.82,32.49,2.16,41.37,4.8,2.45,10.22,3.9,15.7,4.9,18.03,3.26,36.74,1.9,54.78-.93,49.11-7.78,97.4-20.18,145.32-33.32,65.51-18.4,130.85-38.32,193.71-64.49.94-.44,2.08-.02,2.49.95.38.88.02,1.88-.79,2.34h0Z"/>
        <path class="cls-6" d="M16.02,250.8c2.09-1.76,5.55-1.37,8-1.6,2.68-.24,5.36-.44,8.04-.72,10.65-1.16,21.34-3.11,31.68-5.87,23.24-6.37,45.9-17.41,62.6-35.13,9.63-10.32.32-6.7,18.3-1.3,12.84,3.77,26.32,4.68,39.66,5,35.79.42,71.5-4.33,106.77-10.12,17.65-2.98,35.29-6.36,52.69-10.25,1.94-.46,3.9.76,4.33,2.71.44,1.97-.83,3.92-2.81,4.31-17.75,3.5-35.49,6.41-53.33,8.96-44.46,5.72-90.07,11.58-134.71,4.56-8.9-1.69-17.85-4.12-25.61-9,0,0,1.12-.26,1.11-.25-12.84,18.1-31.99,30.68-52.14,39.36-15.26,6.47-31.47,10.47-47.88,12.62-4.01.5-8.3.97-12.34,1.26-1.37.08-2.77-.02-4.18-.84-1.36-.76-1.47-2.81-.18-3.69h0Z"/>
        <path class="cls-6" d="M47.81,169.73c1.32,14.46,13.8,25,26.94,29.38,18.35,6.11,38.3,4.97,57.29,2.43.16-.03.23.25.05.28-8.49,1.72-17.08,3.04-25.78,3.61-17.38,1.09-36.55-.5-50.86-11.57-7.38-5.76-13.06-14.41-14.25-23.86-.23-4.57,6.47-4.85,6.6-.26h0Z"/>
        <path class="cls-14" d="M526.86,101.31s-40.72,164.43-268.33,255.13c-90.49,36.06-176.71,32.08-195.44,11.56C26.07,327.44,6,263.95,4.64,237.86"/>
        <path class="cls-14" d="M5.37,241.05c25.83,47.63,293.4,5.16,521.49-139.74"/>
        <path class="cls-13" d="M184.43,92.74c-47.1,19.79-93.43,42.75-133.28,75.04-17.56,14.75-39.86,35.07-43.5,58.5-.59,4.59-.21,9.21,1.22,13.6.69,1.97-.39,4.13-2.38,4.75-1.95.61-4.02-.46-4.63-2.41-1.78-5.41-2.28-11.26-1.52-16.89,7.3-47.14,85.96-91.71,125.92-111.5,18.63-8.91,37.44-17.88,57.61-22.77.48-.11.95.18,1.06.66.1.42-.12.84-.5,1.01h0Z"/>
      </g>
      <g id="drops">
        <g id="dropsfill">
          <path class="cls-2" d="M287.77,77.26c-6.7-1.11-39.76,25.73-41.91,27.26-3.97,2.81-26.07,32.66-30.95,38.42-.21.25,13.58-8.91,14.82-9.75,1.83-1.23,3.76-2.34,5.65-3.46,3.96-2.35,7.98-4.76,12.21-6.6.77-.34,1.63-.61,2.47-.92,18.67-11.59,37.92-23.79,38.65-24.38,1.75-1.41,4.85-7.72,5.28-9.61.98-4.3-1.31-10.15-6.22-10.96Z"/>
          <path class="cls-2" d="M461.76,76.75c1.01-5.92-3.63-14.31-8.49-13.12-3.69.91-21.64,22.69-24.26,26.1-2.79,3.62-20.75,17.79-26.83,23.4-3.44,3.17,39.85-17.22,42.65-20.21,1.43-1.53,16.27-12.25,16.94-16.17Z"/>
          <path class="cls-2" d="M473.53,2.21c-1.51-4.66-47.36,19.24-46.99,19.17,4.76-.53,22.32-3.51,27.08-4.24,2.84-.43,8.75-1.7,11.35-2.95,1.69-.81,10.04-7.46,8.57-11.99Z"/>
        </g>
        <g id="dropshighlight">
          <path class="cls-12" d="M451.6,63.52c-6.16,4.32-21.83,27-23.36,28.37-2.77,2.5-29.82,22.64-26.06,21.24,12.58-4.68,34.44-23.2,38.88-28.38,2.23-2.59,10.48-14.04,13.28-15.46s4.39-.88,7.05.86c5.01,3.27-2.92-11.46-9.8-6.63Z"/>
          <path class="cls-12" d="M434.95,16.2c-3.85,2.08-14.53,8.02-10.86,6.41,9.12-4,37.57-15.26,42.46-15.96,3.97-.57,3.05-.79,7.09-.23,3.95.55-1.27-.01-.11-4.22.95-3.46-35.67,12.42-38.57,13.99Z"/>
          <path class="cls-12" d="M284.71,76.48c-3.58,1.61-32.23,21.02-35.08,24.2-2.57,2.86-32.51,39.84-33.37,41.28,7.16-7.63,14.82-15.78,20.51-21.32,7.35-7.16,18.06-18.09,26.72-23.61,4.68-2.99,9.75-6.46,15.23-7.72,4.27-.98,13.71-1.87,16.27,2.18,1.64,2.59-3.22-14.82-10.27-15.01Z"/>
        </g>
        <g id="dropsoutline">
          <path class="cls-7" d="M214.42,143.5c-.08-.07-.09-.37.01-.47l.04-.07.08-.13.17-.25c1.66-2.49,3.42-5.09,5.15-7.52,9.39-13.27,19.38-26.1,30.43-38.06,6.8-7.19,13.92-14.32,22.43-19.7,6.8-4.48,15.86-7.16,21.56.63,1.79,2.41,2.88,5.38,2.85,8.4-.6,13.54-19.95,23.44-30.85,28.42-2.2.78-4.53,1.82-6.77,2.86-15.65,7.29-30.36,17.05-45.12,25.88h0ZM214.87,143.06c7.44-5.78,16.34-11.44,24.25-16.53,6.27-3.98,12.64-7.84,19.23-11.32,2.04-1.07,4.94-2.5,6.74-3.21,9.01-4.66,24.34-13.51,26.77-23.79.46-2.2-.12-4.35-1.36-6.14-1.45-2.39-3.8-2.52-6.44-1.81-2.39.51-5.17,1.58-7.76,3.06-13.58,8.04-24.75,19.83-35.75,31.11-8.54,9.08-16.85,18.53-24.87,28.08,0,0-.39.47-.39.47l-.19.23-.1.12-.05.06c.07-.05.03-.31-.08-.34h0Z"/>
          <path class="cls-7" d="M402.13,113.32c-.04-.25-.47-.48-.69-.37,0,0,.15-.06.15-.06l.3-.12c.33-.13,1.43-.58,1.78-.72,5.4-2.24,11.15-4.76,16.41-7.28,12.02-5.92,24.48-11.98,34.3-21.18,1.58-1.59,3.1-3.35,4.01-5.4,1.17-2.98,2.48-6.77.71-9.64-1.89-2.85-6.9-2.9-9.47-.76-.91.73-1.99,2.59-2.66,3.57-7.65,11.68-18.5,20.84-28.95,29.88-5.25,4.49-10.06,8.28-15.88,12.07h0ZM400.93,114.01c12.08-12.26,25.79-23.2,36.34-36.89,2.08-2.65,3.92-5.36,5.56-8.28.93-1.61,1.89-3.45,3.28-4.78,4.85-4.58,14.05-4.64,17.96,1.33,3.43,5.67.45,14.07-3.49,18.7-3.24,3.76-7.47,6.69-11.55,9.27-8.86,5.47-18.38,9.75-27.95,13.72-5.84,2.4-12.13,4.75-18.1,6.82,0,0-.61.21-.61.21l-.31.1c-.23.08-.4.15-.7.08-.22-.06-.36-.2-.44-.28h0Z"/>
          <path class="cls-7" d="M424.22,22.97l-.46.13c-.11.03-.27.08-.43.05,0,.01-.24-.06-.31-.21-.05-.09-.06-.24-.04-.3.17-.44.62-.64.89-.87,7.49-4.86,15.38-9.04,23.33-13.12,6.48-3.18,13.03-6.29,20.13-8.07,2.04-.41,4.12-.89,6.37-.31,2.68.68,3.5,3.53,2.57,5.71-1.79,4.42-5.29,8.14-9.77,9.83-4.77,1.79-9.61,1.89-14.5,2.34-9.42.62-18.73,2.03-27.77,4.82h0ZM423.98,22.26c8.89-3.4,18.24-5.76,27.63-7.25,7.99-1.34,17.08-1.89,20.47-10.48.14-.35.08-.62.13-.38.03.12.16.31.25.37.09.06.08.04-.02,0-.19-.06-.62-.11-1.08-.1-3.23.18-6.52,1.25-9.69,2.25-8.88,2.93-17.68,6.5-26.25,10.32-3.9,1.81-8.18,3.67-11.71,5.89.02-.08.06-.2-.02-.3-.05-.13-.25-.17-.22-.16-.01,0-.05,0-.03,0,.18-.01.36-.08.54-.15h0Z"/>
        </g>
      </g>
    </g>
    <g id="movementswishes">
      <path class="cls-9" d="M13.86,337.63c7.24,26.78,27.47,47.85,53.39,57.36,26.38,9.94,54.43,10.17,82.48,10.17-20.71,5.81-43.09,8.03-64.55,4.77-22.06-3.16-43.93-13.29-57.83-31.17-9.05-11.63-14.95-26.2-14.75-41.04.01-.35.31-.62.66-.61.31.01.54.23.6.52h0Z"/>
      <path class="cls-9" d="M13.59,384.42c4.6,17.37,18.9,30.09,36.02,34.61,13.56,3.88,27.47,3.99,41.61,3.98-7.89,2.25-16.08,3.44-24.39,3.59-18.84.39-39.56-6.66-49.09-24.01-2.99-5.55-5.01-11.79-4.87-18.11.04-.41.62-.5.72-.05h0Z"/>
    </g>
  </g>
</svg>