<?xml version="1.0" encoding="UTF-8"?>
<svg id="shopping_cart" data-name="shopping cart" xmlns="http://www.w3.org/2000/svg" viewBox="0 0 2500 1860.63">
  <polygon points="2071.06 285.79 2071.06 286.88 2070.88 286.88 1473.71 1440.81 893.03 1440.81 442.62 570.47 272.48 570.47 723.02 1429.9 723.53 1429.94 775.68 1534.71 941.08 1534.71 941.08 1534.71 1591.06 1534.71 1643.21 1429.94 1643.72 1429.9 2173.67 418.99 2407.94 418.99 2407.94 285.79 2071.06 285.79" style="fill: #fff;"/>
  <path d="M1967.17,816.64l72.27-137.41h-169.27l56.61-108.76h-154.91l-56.61,108.76h-465.43v-108.76h-137.41v108.76h-465.43l-56.61-108.76h-154.91l56.61,108.76h-146.02l72.77,137.41h144.78l56.38,108.3h-143.8l72.77,137.41h142.56l56.38,108.3h-141.58l72.77,137.41h140.34l69.11,132.75h154.91l-69.11-132.75h138.08v132.75h137.41v-132.75h138.08l-69.11,132.75h154.91l69.11-132.75h165.88l72.27-137.41h-166.62l56.38-108.3h167.21l72.27-137.41h-167.95l56.38-108.3h168.53ZM1112.41,1170.64h-209.61l-56.38-108.3h265.99v108.3ZM1112.41,924.93h-337.52l-56.38-108.3h393.9v108.3ZM1459.44,1170.64h-209.61v-108.3h265.99l-56.38,108.3ZM1587.34,924.93h-337.52v-108.3h393.9l-56.38,108.3Z" style="fill: #fff;"/>
  <rect x="272.48" y="430.23" width="1750.58" height="140.24" style="fill: #fff;"/>
  <rect x="773.43" y="1490.3" width="822.15" height="140.24" style="fill: #fff;"/>
</svg>